,
.   http://www.scenetime.com/signup.php  ---&gt;  Hottest scene tracker on the net !!!
 
Scenetime lucky draw is started , join now and be the winner . offer is limited 

    Join Now   http://www.scenetime.com/signup.php

    seed back for speed


 



...................................NFO:.................................................The.Muppets.2011.TS.README.XViD-TA

[img]http://i.imgur.com/hZ7J7.jpg[/img]

Plot:
With the help of three fans, The Muppets must reunite to save their old theater from a greedy oil tycoon.
 
http://www.imdb.com/title/tt1204342/

General
Complete name                    : The.Muppets.2011.TS.README.XViD-TA.avi
Format                           : AVI
Format/Info                      : Audio Video Interleave
File size                        : 1.14 GiB
Duration                         : 1h 37mn
Overall bit rate                 : 1 678 Kbps
Writing library                  : VirtualDub build 32661/release
Sources                          : Video:Spanish / Audio: Our own

Video
ID                               : 0
Format                           : MPEG-4 Visual
Format profile                   : Advanced Simple@L5
Format settings, BVOP            : No
Format settings, QPel            : No
Format settings, GMC             : No warppoints
Format settings, Matrix          : Custom
Codec ID                         : XVID
Codec ID/Hint                    : XviD
Duration                         : 1h 37mn
Bit rate                         : 1 539 Kbps
Width                            : 640 pixels
Height                           : 256 pixels
Display aspect ratio             : 2.500
Frame rate                       : 29.970 fps
Color space                      : YUV
Chroma subsampling               : 4:2:0
Bit depth                        : 8 bits
Scan type                        : Progressive
Compression mode                 : Lossy
Bits/(Pixel*Frame)               : 0.313
Stream size                      : 1.05 GiB (92%)
Writing library                  : XviD 1.2.1 (UTC 2008-12-04)

Audio
ID                               : 1
Format                           : MPEG Audio
Format version                   : Version 1
Format profile                   : Layer 3
Mode                             : Joint stereo
Mode extension                   : MS Stereo
Codec ID                         : 55
Codec ID/Hint                    : MP3
Duration                         : 1h 37mn
Bit rate mode                    : Constant
Bit rate                         : 128 Kbps
Channel(s)                       : 2 channels
Sampling rate                    : 44.1 KHz
Compression mode                 : Lossy
Stream size                      : 89.1 MiB (8%)
Alignment                        : Split accross interleaves
Interleave, duration             : 33 ms (1.00 video frame)
Writing library                  : LAME3.98r
Encoding settings                : -m j -V 4 -q 2 -lowpass 17 -b 128

Notes: Cleaned up the Video the best we could then Muxed with our Line audio.
The Source Video started with The Muppetes singing a couple of songs. I don't think it's actually part of the movie so I removed it before muxing audio. I did include the additional 5:52 of footage as a separate file (english audio) 

REASON FOR README: The audio is far from perfect and contains 13 min of CAM audio near the middle of the movie in adition to a lot of filtering to remove hiss and pop. (take it or leave it). Wanna give a big shout out to my audio guys for all there efforts. THANKS GUYS!

Runtime: USA: 103 min (IMDB)
Duration  1h 37mn

Greets:
All groups (past and present) P2P and Scene

Screens:
        [IMG]http://i.imgur.com/ofB1C.png[/IMG]
        [IMG]http://i.imgur.com/KVWVl.png[/IMG]
        [IMG]http://i.imgur.com/VT4rE.png[/IMG]
        [IMG]http://i.imgur.com/Krcta.png[/IMG]
        [IMG]http://i.imgur.com/tLjbi.png[/IMG]

Enjoy,
TA-rg
[img]http://imageshack.us/m/221/9655/targ.png[/img]